# xmcd
#
# Track frame offsets:
#	150
#	16797
#	37095
#	53605
#	73130
#	92510
#	106462
#	124150
#	146100
#	160870
#
# Disc length: 2402
#
# Revision: 5
# Processed by: cddbd v1.5.1PL0 Copyright (c) Steve Scherf et al.
# Submitted via: EasyCDDAExtractor 7.0.6.1
# Normalized: r4:DSETVAR1
#
DISCID=8509600a
DTITLE=Various Artist - Garfield "Am I Cool Or What?" [Compilation]
DYEAR=1991
DGENRE=Blues
TTITLE0=The Temptations - Shake Your Paw
TTITLE1=Patty LaBelle - I Love It When I'm Naughty
TTITLE2=Carl Anderson - Fat Is Where It's At
TTITLE3=Natalie Cole - Long 'Bout Midnight
TTITLE4=Pointer Sisters, The - Nine Lives
TTITLE5=Lou Rawls - Here Comes Garfield
TTITLE6=Diane Schuur - Next To You I'm Even Better
TTITLE7=David Benoit And Marcel East - Spare Time
TTITLE8=Desiree Goyette - Up On A Fence
TTITLE9=B.B. King - Monday Mourning Blues (Blues For Mr. G.)
EXTD=
EXTT0=The Temptations
EXTT1=Patty LeBelle
EXTT2=Carl Anderson
EXTT3=Natalie Cole
EXTT4=The Pointer Sisters
EXTT5=Lou Rawls
EXTT6=Diane Schuur
EXTT7=Valerie Pinkston
EXTT8=Desiree Goyette
EXTT9=B. B. King
PLAYORDER=
